<svg width="411" height="562" viewBox="0 0 411 562" fill="none" xmlns="http://www.w3.org/2000/svg">
<path d="M226.349 438.847L224.782 441.091L219.515 447.7L218.933 444.615L218.229 441.951L218.304 441.325L217.656 438.866L218.539 435.276L222.313 431.256L222.651 430.892L223.796 428.564L226.068 426.423L228.293 426.002L228.584 431.78L227.56 434.023L227.382 437.754L226.349 438.847ZM232.63 416.018L232.217 414.476L232.311 410.661L231.606 411.11L231.071 413.597L229.945 415.373L229.654 418.037L231.954 415.794L232.63 416.018ZM227.279 389.786L227.006 389.057L223.317 386.093L222.66 386.514L224.415 390.496L227.72 392.544L227.964 391.964L227.87 391.543L227.964 390.861L225.711 390.001L227.063 389.861L227.279 389.786ZM222.303 379.792L222.998 378.596L223.402 379.783L224.087 379.689L224.237 378.932L222.604 376.904L220.726 377.511L220.754 379.372L222.294 379.082L221.787 379.802L222.303 379.792ZM231.165 423.703L230.846 420.589L227.936 420.954L226.349 425.815L229.579 425.292L231.165 423.703ZM218.717 455.189L220.21 454.011L220.078 453.207L219.384 452.104L218.67 452.711L218.717 455.189ZM224.434 446.737L225.195 446.354L226.218 445.223L225.138 444.915L223.017 446.84L224.434 446.737ZM184.048 454.703L181.776 456.787L179.974 456.638L177.402 454.59L178.003 450.991L177.421 450.598L178.059 448.607L181.429 446.672L182.049 445.494L181.908 443.307L183.401 439.539L187.719 435.706L189.268 432.948L191.925 433.734L194.337 432.425L195.182 428.339L196.412 425.871L195.633 422.693L194.656 422.431L194.703 419.038L193.53 414.831L193.821 412.662L194.44 411.979L196.581 412.475L197.726 411.951L198.853 409.895L199.435 405.305L201.951 403.108L202.561 399.938L206.156 399.78L207.058 398.527L207.086 397.255L208.344 398.031L211.902 398.714L212.906 401.172L214.662 399.677L213.366 396.218L216.502 393.787L215.187 389.805L220.707 388.926L225.824 392.46L226.528 393.525L227.063 396.274L228.602 398.817L227.551 400.714L227.063 399.621L227.035 403.519L230.743 408.175L228.274 417.402L227.175 419.206L222.491 423.684L221.149 427.059L219.562 428.152L219.017 429.368L213.413 436.473L209.686 435.426L208.578 435.884L204.758 438.969L202.392 445.391L200.571 444.279L198.656 445.859L197.989 447.953L196.618 447.205L195.595 445.672L193.436 444.765L193.239 445.26L190.488 445.84L189.672 445.186L188.695 445.522L186.987 448.158L187.963 450.318L185.616 450.477L185.025 451.29L185.241 452.861L184.048 454.703ZM225.786 359.936L226.49 360.244L228.011 360.385L228.349 358.543L226.002 359.328L225.786 359.936ZM227.025 351.186L225.063 347.184L224.491 346.034L221.956 347.025L221.242 346.754L221.702 346.483L224.115 345.445L224.134 344.66L222.35 344.398L220.961 345.09L218.417 347.259L218.257 347.353L214.249 348.559L212.493 349.793L215.403 350.428L217.975 352.148L219.017 352.896L219.553 352.326L222.81 358.898L225.392 358.44L227.204 356.888L227.645 355.579L227.025 351.186ZM180.312 445.775L176.623 445.232L174.952 443.615L174.172 440.399L177.749 438.875L178.406 437.23L177.965 433.762L178.359 431.593L181.805 428.592L180.828 427.021L177.533 425.348L181.176 424.011L182.349 422.833L183.006 419.253L184.668 418.439L185.381 416.897L185.306 414.7L183.964 411.194L185.672 409.577L187.616 406.211L190.826 403.323L190.854 400.761L192.516 397.882L192.685 397.171L194.074 395.834L193.436 394.703L191.624 395.124L192.112 392.114L193.455 389.365L191.718 387.823L191.014 384.831L193.877 383.7L196.543 384.354L198.768 383.466L200.064 383.784L201.19 381.297L204.119 381.456L205.067 382.952L205.8 382.877L208.588 377.997L209.846 377.39L209.573 374.716L210.625 374.622L211.47 375.931L213.469 375.483L214.033 374.669L213.131 373.538L214.136 372.407L216.079 372.893L218.849 375.595L219.731 377.698L218.773 378.577L219.722 378.381L220.097 388.122L214.596 389.618L215.657 393.731L213.366 395.563L213.15 396.536L214.173 399.125L213.16 400.153L212.042 398.312L208.898 397.732L207.405 396.788L206.645 397.022L206.231 399.041L205.049 399.621L203.302 399.153L201.913 399.602L201.594 402.135L198.449 405.968L197.67 411.11L196.834 411.437L195.708 410.942L193.464 411.783L192.807 412.886L193.671 422.216L195.576 425.694L194.168 428.19L193.389 431.826L189.014 431.995L186.367 435.472L183.006 438.006L181.119 441.399L180.312 445.775ZM217.947 371.809L217.037 370.154L215.901 370.098L216.042 371.322L217.75 372.79L217.947 371.809ZM231.606 397.648L229.485 398.723L227.335 402.911L231.907 408.118L231.569 404.538L232.132 400.817L232.104 400.294L232.423 398.256L231.606 397.648ZM232.836 446.158L230.339 450.271L229.231 454.076L231.109 453.768L232.414 453.646L234.601 450.907L235.681 449.673L237.079 446.083L234.93 445.924L232.836 446.158ZM229.128 443.129L227.326 440.923L225.795 442.4L225.204 444.41L226.8 444.858L227.044 444.849L228.621 445.775L229.907 444.653L229.128 443.129ZM224.997 447.13L222.022 447.635L220.097 450.383L220.031 451.832L220.754 453.945L225.777 454.59L225.655 453.366L226.781 452.01L228.133 447.467L228.48 446.382L226.819 445.176L224.997 447.13ZM240.778 450.505L239.37 451.767L238.441 453.917L238.769 456.974L239.999 456.815L242.299 452.15L241.604 450.795L240.778 450.505ZM246.505 452.048L245.144 452.178L243.707 454.992L244.984 454.964L244.881 453.927L245.791 453.141L245.876 454.02H246.42L247.275 453.272L247.096 452.599L246.505 452.048ZM232.921 392.562L231.043 391.777L228.987 392.17L228.086 393.376L228.527 394.815L229.776 395.545L230.536 397.246L232.414 397.611L232.217 395.096L231.804 393.759L232.198 393.161L232.921 392.562ZM243.163 392.357L251.602 402.79L251.152 405.809L249.302 409.119L249.377 418.869L247.81 429.452L246.786 432.191L244.533 435.8L240.45 438.829L236.619 443.101L233.062 444.148L230.931 444.335L229.823 443.157L228.133 440.904L227.889 439.427L229.917 433.163L230.311 426.133L232.526 423.45L234.92 417.663L235.512 412.363L234.629 408.829L234.113 393.217L232.742 391.16L229.973 390.272L229.635 390.702L228.133 390.029L225.72 387.065L222.313 385.364L223.28 383.784L225.983 382.139L226.133 380.475L225.251 377.614L224.622 377.203L223.017 377.1L223.139 373.65L222.744 373.127L221.946 372.444L221.918 376.38L220.942 376.894L218.548 373.416L217.994 370.556L216.877 369.453L216.117 369.668L215.441 367.527L214.483 367.742L213.357 369.294L212.869 369.266L213.347 370.238L213.789 371.603L212.118 373.426L213.122 374.725L211.573 375.67L210.869 374.043L209.62 373.912L209.132 374.781L209.301 377.221L208.372 377.829L205.368 382.784L204.316 381.26L201.115 380.895L199.923 383.541L198.308 383.148L196.525 384.121L193.887 383.335L190.732 384.569L191.418 388.112L193.154 389.449L191.981 391.076L191.127 394.956L191.709 395.582L193.567 395.161L193.765 395.76L192.225 396.994L190.516 400.481L190.441 403.07L187.653 405.239L185.137 409.399L183.156 411.26L183.185 412.755L184.433 414.849L183.748 417.093L181.964 419.655L181.382 423.104L177.937 423.936L176.932 424.852L177.252 427.227L180.678 428.508L177.993 430.078L176.698 431.78L176.472 433.397L177.355 436.061L173.919 438.997L172.868 440.997L174.37 447.168L173.431 448.467L171.732 449.075L169.817 448.009L169.347 443.727L168.033 441.671L166.587 437.099L167.535 430.854L164.634 422.534L163.78 417.374L168.483 406.557L173.318 402.463L174.407 397.414L176.923 397.274L176.651 396.657L174.942 396.395L172.623 397.555L173.412 397.994L172.999 401.107L166.108 407.071L164.015 404.912L164.85 402.304L164.935 403.454L167.789 401.743L169.845 401.322L170.605 400.21L169.601 399.116L167.554 399.48L165.639 398.919L165.076 397.723L165.705 396.227L168.042 396.18L172.145 397.274L172.107 396.031L168.305 395.788L171.018 392.357L172.004 388.412L171.112 387.43L167.995 386.981L168.774 383.298L165.742 381.653L166.521 380.045L167.798 381.466L168.624 381.082L169.835 379.998L169.112 379.157L166.916 378.409L164.24 378.913L163.386 378.109L167.207 375.37L169.263 375.828L169.525 373.043L167.751 373.164L167.864 371.855L167.028 371.014L170.211 370.453L169.76 368.985L168.042 368.78L169.835 366.704L170.83 366.069L169.976 362.544L172.173 363.572L176.904 362.123L178.434 356.252L180.556 355.766L180.687 352.532L181.683 352.476L183.954 349.194L186.461 349.054L187.203 346.044L187.888 345.408L187.193 344.857L188.723 344.408L189.634 343.08L192.272 344.127L194.309 342.762L196.027 344.95L195.642 348.278L196.121 348.727L195.276 350.475L196.102 352.541L196.74 351.588L198.243 351.597L197.717 352.382L198.064 352.99L199.594 351.531L200.571 352.12L203.997 351.849L204.213 349.428L202.758 346.577L203.575 344.352L208.1 344.165L212.643 345.651L212.84 346.287L211.742 347.306L209.404 347.82L212.897 348.521L210.644 349.381L215.666 351.466L216.323 351.831L220.088 354.775L222.04 358.87L218.867 361.469L218.895 361.946L217.384 364.806L217.891 366.854L218.755 367.396L218.877 368.004L220.125 366.377L218.266 364.227L220.811 361.394L220.98 360.581L222.275 359.955L230.827 361.553L233.737 364.049L235.249 366.489L234.244 367.387L232.339 367.807L226.941 367.387L222.96 369.069L220.416 368.153L219.44 368.49L221.721 369.135L222.697 370.705L225.054 368.686L228.039 368.237H228.677H228.997L231.466 368.714L233.005 369.565L237.455 383.195L239.436 385.345L241.708 386.579L243.163 392.357ZM201.04 445.186L202.101 446.205L201.81 448.102L198.59 455.394L198.055 458.648L194.816 461.396L192.535 462.462L189.765 462.406L185.175 460.929L182.969 458.965L182.95 456.909L184.095 456.554L185.701 453.235L185.644 450.86L187.531 450.907L188.263 450.346L187.418 447.831L189.362 445.475L190.319 446.167L194.009 445.27L195.642 446.41L195.849 447.551L196.356 447.411L198.308 448.617L199.35 445.69L201.04 445.186ZM210.522 444.363L210.381 442.662L206.738 445.382L202.26 454.721L202.683 457.058L203.575 458.068L206.72 457.601L208.278 455.908L206.579 451.543L210.522 444.363ZM209.893 439.174L212.981 436.576L211.507 436.127L209.864 435.613L207.349 437.978L205.236 441.792L205.415 443.522L205.265 444.55L209.686 439.689L209.893 439.174ZM212.164 454.768L214.709 454.151L215.544 452.973L215.91 451.945L212.615 453.319L212.164 454.768ZM213.375 458.096L213.169 459.293L215.694 458.769L215.478 456.712L213.375 458.096ZM217.412 440.885L216.22 438.586L211.883 440.941L211.648 441.241L210.766 442.325L211.122 444.541L208.25 449.645L207.424 451.346L207.884 454.282L209.442 455.422L210.221 455.338L211.113 453.571L215.957 451.309L218.501 448.373L217.412 440.885ZM220.52 458.638L220.623 457.386L219.9 457.124L217.619 458.414L217.121 460.153L217.544 461.275L218.83 461.377L221.59 459.629L221.834 459.059L221.242 459.48L220.52 458.638ZM223.111 455.422L221.552 454.375L219.787 456.339L223.486 457.273L224.049 456.899L223.655 455.918L223.111 455.422Z" fill="#F7EBFF"/>
<path d="M253.592 408.137L253.301 411.699L252.71 412.232L252.353 411.858L253.085 409.736L252.381 409.212L252.137 408.455L253.283 406.202L253.592 408.137ZM255.827 415.999L256.653 415.466L257.751 412.456L257.169 410.334L255.217 415.149L255.827 415.999ZM261.215 408.661L262.041 407.184L262.07 405.809L260.971 404.108L259.187 405.127L259.141 407.529L260.192 408.707L261.215 408.661ZM263.393 416.719L261.779 410.652L260.483 411.045L260.455 416.906L253.395 434.883L254.541 436.108L255.639 437.043L256.418 436.734L256.981 434.07L260.868 428.087L262.605 423.824L263.393 416.719ZM268.162 410.418L267.036 408.614L264.886 410.502L266.134 412.148L268.012 411.157L268.162 410.418ZM266.378 415.41L265.843 413.999L264.745 415.018L265.477 417.682L266.378 415.41ZM262.558 400.92L262.267 401.836L263.506 408.642L264.679 409.586L266.219 408.016L266.848 405.809L267.449 402.098L265.008 400.481L262.558 400.92ZM263.956 413.139L264.595 414.737L265.796 413.531L264.454 412.092L263.956 413.139ZM238.309 355.86L237.924 355.224L235.615 352.345L234.986 352.027L233.878 352.793L236.244 356.626L236.46 356.813L239.098 361.095L239.445 360.73L239.811 359.655L238.319 356.187L238.309 355.86ZM228.696 329.833V329.815L228.565 329.974L228.696 329.833ZM260.539 403.612L260.323 401.677L258.69 402.388L259.328 403.753L260.539 403.612ZM265.224 435.893L263.346 435.164L262.567 435.585L261.028 438.903L261.347 440.867L262.295 441.699L264.294 440.605L265.684 438.754L265.346 438.389L265.984 437.08L265.224 435.893ZM255.845 395.788L256.136 397.068L258.117 397.405L258.681 397.461L262.098 396.18L259.854 392.852L258.361 393.273L259.535 392.46L256.409 389.814L252.306 389.449L250.494 388.215L249.124 389.449L249.199 390.132L255.357 396.47L255.845 395.788ZM284.581 403.771L285.022 405.033L286.243 405.791L286.9 403.771L286.046 402.724L284.581 403.771ZM296.382 379.615L296.091 378.624L294.842 377.1L291.669 375.445L289.303 376.885L290.383 381.372L292.702 384.251L295.415 385.065L297.546 386.607L298.794 383.074L298.747 381.522L296.382 379.615ZM288.318 384.831L286.975 384.784L286.459 384.476L285.773 386.093L286.6 389.496L288.261 386.878L288.318 384.831ZM288.487 391.73L287.163 394.273L286.628 395.947L287.585 396.994L290.815 392.964L291.087 391.263L290.308 390.609L288.487 391.73ZM309.966 394.161L304.342 386.748L302.803 385.672L300.55 386.935L300.869 387.561L299.724 387.43L299.142 388.767L299.733 389.244L299.029 389.477L300.569 396.704L302.155 400.892L305.356 406.389L307.975 407.539L310.05 407.305L313.157 405.893L313.871 404.192L313.505 401.369L309.966 394.161ZM341.677 452.964L340.166 450.87L337.65 452.917L337.124 455.291L338.185 460.04L337.378 462.088L337.528 464.967L336.674 466.678L337.181 468.043L337.847 467.931L342.1 456.488L341.677 452.964ZM408.283 503.857L405.758 490.947L404.162 471.923L404.866 461.92L405.673 460.115L405.148 458.984L406.396 454.543L405.138 449.308L405.063 443.69L403.965 440.156L404.491 438.286L401.449 431.565L402.96 430.574L404.922 432.303L405.27 427.451L404.462 426.554L403.843 419.533L402.829 416.504L402.951 413.531L401.026 406.856L399.9 394.731L398.914 391.562L398.022 390.786L398.82 389.234L398.764 386.841L397.637 380.045L395.638 374.426L394.577 372.706L393.629 371.893L394.089 370.911L393.31 369.827L393.319 368.499L391.676 366.115L392.174 365.246L392.155 364.255L392.146 363.049L391.611 361.544L390.662 359.496L389.376 360.123L388.137 357.664L386.982 357.365L386.184 355.897L384.326 355.589L385.208 350.662V345.829L385.931 343.922L385.067 341.154L383.481 339.397L384.157 337.322L383.396 336.415L384.007 334.302L383.828 332.012L383.18 331.245L383.087 326.935L387.264 326.122L386.541 323.916L385.537 322.074L385.424 320.204L384.119 318.839L385.058 316.25L384.786 315.081L384.251 314.268L383.791 313.52L382.974 313.296L383.143 310.659L382.326 310.117L382.129 308.266L381.303 308.556L381.153 306.2L381.059 305.396L380.571 304.05L379.773 302.956L379.754 299.675L378.843 298.805L379.303 296.823L377.876 293.645L377.153 292.897L377.135 291.037L377.736 290.111L376.093 289.653L377.276 283.548L375.013 280.323L373.483 280.473L372.572 281.697L373.051 283.782L372.281 285.83L370.704 286.942L370.056 286.409L370.479 283.464L369.211 282.343L367.738 282.006L367.249 279.052L366.442 278.968L364.565 279.912L360.641 285.241L359.298 285.175L358.979 287.391L357.543 288.27L354.454 286.652L353.365 287.007L349.892 280.183L347.995 280.379L347.573 283.1L346.249 284.745L347.516 290.822L347.019 293.823L348.155 294.542L347.901 298.459L348.512 299.282L347.789 300.114L349.075 301.619L349.159 303.704L346.23 304.966L346.7 307.35L346.221 307.967L342.851 307.602L337.913 311.519L337.105 313.015L337.622 313.408L334.477 317.362L331.191 324.467L331.557 326.159L333.059 327.73L332.994 329.516L333.698 330.824L334.252 334.433L334.928 335.162L334.815 337.079L335.585 337.836L335.707 339.724L335.763 341.285L335.923 342.043L335.078 342.847L332.017 342.968L331.586 345.146L329.445 348.502L327.201 350.466L324.808 349.204L323.944 350.597L322.799 350.606L321.184 350.718L320.799 351.055L317.861 353.261L316.593 353.616L317.222 351.98L315.946 351.756L314.706 352.943L312.895 351.69L312.876 350.438L311.674 349.961L312.059 347.97L312.144 346.268L310.764 346.184L311.017 344.698L310.829 343.594L310.125 341.958L310.482 341.229L308.745 339.481L309.449 338.658L308.163 337.434L308.764 336.546L308.295 335.218L307.722 333.778L307.234 333.068L306.408 330.637L306.154 329.375L303.751 329.076L305.178 328.113L304.464 326.898L303.141 326.43L303.845 325.365L300.184 325.402L299.226 326.487L298.944 328.066L298.222 328.328L297.611 332.498L297.846 335.05L299.48 339.388L299.301 340.528L299.677 341.603L300.578 341.996L300.531 343.884L298.794 344.585L296.626 343.426L294.513 340.005L293.256 335.19L292.467 334.554L292.044 326.692L292.026 325.449L291.247 323.467L291.782 322.766L290.364 321.962L291.697 320.859L291.2 319.709L289.557 319.073L290.017 317.157L291.115 316.82L292.054 315.156H289.791L289.003 314.249L288.618 313.66L288.233 310.042L286.271 306.976L285.736 303.059L284.3 302.601L284.44 301.788L283.389 300.75L281.605 300.395L281.371 299.778L282.591 297.487L280.958 297.525L280.911 295.842L279.211 293.935L279.427 293.178L278.066 292.701L277.597 285.867L278.911 287.138L280.591 287.316L280.911 288.111L281.878 287.194L281.896 284.25L281.098 283.782L277.343 283.894L277.005 282.128L277.531 279.314L278.583 278.108L280.62 277.995L282.272 278.295L283.183 279.248L284.018 276.462L283.84 273.835L286.083 269.778L283.877 265.627L283.849 264.075L285.37 262.757L284.121 261.299L287.736 261.523L286.844 259.392L287.351 257.961L288.393 256.101L288.9 257.541L289.791 257.092L290.383 254.624L289.529 254.194L289.641 252.726L290.589 252.838L291.049 250.585L290.167 248.725L288.778 248.557L289.087 245.201L287.97 245.462L287.097 244.817L287.351 243.574L289.087 242.948L287.285 242.331L287.304 240.807L286.506 240.601L287.764 238.75L288.074 237.058L290.233 236.02L291.2 236.347L291.049 234.861L288.374 235.702L287.754 235.123L288.468 233.477L289.519 234.02L289.698 232.898L290.467 233.206L291.34 232.225L292.082 232.243L292.063 229.401L290.852 228.794L289.885 229.243L288.712 230.822L288.393 232.346L288.825 232.87L287.801 233.066L280.901 231.757L279.043 229.355L275.86 231.645L270.753 231.757L270.378 233.692L271.711 234.609L271.542 235.029L266.792 234.74L264.942 237.432L262.023 239.255L263.459 241.686L267.467 243.92L268.303 245.855L267.345 247.669L262.051 251.23L260.614 253.904L260.99 257.737L258.756 259.56L258.962 261.953L256.69 263.804L255.986 266.861L254.099 268.432L253.095 268.376L251.17 266.562L248.936 267.712L244.224 267.441L242.393 268.273L241.811 269.544L242.806 271.293L242.862 273.882L239.624 277.743L239.06 279.286L239.201 280.856L240.9 283.548L240.121 286.213L238.225 286.708L235.427 285.082L232.31 285.661L230.874 290.812L233.306 291.242L234.31 293.542L233.099 293.795L232.339 295.103L235.775 296.646L238.075 301.75L235.746 303.218L232.188 301.844L230.161 303.05L227.654 303.377L222.913 313.109L224.002 316.25L226.49 317.989L226.002 320.952L229.457 328.833L231.578 328.618L231.682 333.517L232.949 337.836L231.7 340.893L231.409 347.437L231.973 349.961L233.756 352.644L234.808 351.541L236.056 351.597L238.375 354.869L240.506 359.665L242.506 362.058L242.477 362.161L244.308 365.835L243.867 370.537L247.509 377.623L249.903 380.821L250.757 380.923L251.349 381.344L253.818 381.84L254.775 383.597L263.393 389.262L269.974 396.853L273.419 393.058H274.809L276.001 393.507L276.902 392.927L277.372 393.245L277.738 393.694L277.08 394.507L278.104 394.956L283.624 391.441L284.966 391.917L286.609 390.478L284.872 386.261L286.44 384.242L288.196 383.747L287.388 383.195L287.482 381.961L285.773 379.783L284.262 380.017L283.774 379.54L284.9 379.512L284.046 377.567L282.065 377.464L281.211 375.548L279.897 375.389L280.141 374.996L280.976 375.024L282.488 376.81L283.37 375.969L284.084 376.315L286.158 378.334L289.754 374.033L290.486 373.688L293.415 373.033L296.447 373.351L297.452 372.93L297.668 371.855L295.255 371.089L297.011 369.883L299.142 371.407L299.311 372.669L300.315 373.379L301.442 370.995L300.587 369.733L300.756 368.733L299.489 367.919L301.122 364.713L301.244 366.162L300.24 367.499L302.906 370.126L303.544 373.276L303.516 373.828L304.418 376.034L311.768 380.624L315.608 384.999L316.293 386.654L322.254 392.684L325.793 397.975L326.629 401.378L327.952 403.238L327.615 403.921L328.591 405.127L331.088 416.065L330.769 418.262L333.698 422.599L334.571 421.964L335.134 422.263L335.059 425.525L336.627 431.144L337.65 433.023L338.166 433.229L339.002 432.35L339.34 433.126L339.265 435.603L340.457 439.548L340.701 441.895L339.941 443.671L341.368 446.018L343.733 454.272L344.062 457.507L343.508 461.041L338.673 474.278L339.274 475.69L340.635 477.055L341.217 476.952L341.518 476.251L342.147 477.083L341.339 478.289L341.443 479.579L340.785 479.654L340.861 481.795L340.232 483.001L340.936 484.029L342.579 483.505L341.659 484.655L340.767 484.384L340.213 485.067L340.363 485.721L341.396 486.478L340.438 487.189L339.208 486.609L338.373 488.049L338.654 488.703L341.884 492.527L343.217 493.134L343.668 492.284L342.71 491.629L343.564 491.255L343.085 490.423L343.79 490.068L344.39 490.592L347.038 490.62L349.281 489.862L350.417 478.532L351.046 477.074L352.192 481.29L351.891 481.767L350.877 483.477L351.441 489.021L350.38 491.966L349.15 493.2L348.671 493.106L347.535 494.303L347.085 494.023L347.122 495.172L352.961 503.072L355.646 509.541L355.796 520.75L367.672 535.605L369.24 541.139L371.483 545.879L375.783 552.414L379.012 559.818L381.04 561.604L381.622 560.126L379.594 552.236L377.811 547.87L375.389 545.365L374.487 542.121L374.581 539.447L373.558 534.24L374.685 531.595L371.436 527.734L371.164 525.35L371.418 524.807L369.615 524.116L368.094 521.012L369.69 517.366L370.178 517.693L371.549 515.964L369.399 510.42L368.92 507.316L371.868 504.661L373.962 504.044L373.877 501.277L374.966 500.52L375.201 497.958L376.909 497.93L378.224 498.903L379.613 498.482L381.5 495.023L383.706 493.359L385.649 493.536L388.588 497.538L389.207 500.099L388.804 502.128L389.649 503.596L395.431 505.325L396.342 504.97L396.464 503.661L397.9 503.951L399.609 502.885L400.707 503.586L401.89 508.289L403.664 512.056L403.89 514.692L405.486 514.87L406.884 512.823L410.715 510.28L408.283 503.857ZM268.378 438.277L267.918 441.437L270.8 438.959L270.387 437.604L268.378 438.277ZM286.966 401.846L288.196 403.407L289.106 403.416L289.247 402.818L287.726 401.219L286.966 401.846ZM276.02 395.76L276.517 393.899L276.17 393.75L275.015 393.703L274.593 393.338H273.541L271.485 395.339L270.537 397.517L270.462 400.396L271.345 400.425L274.668 396.573L276.02 395.76ZM277.982 413.298L276.733 409.324L274.903 407.436L274.78 405.968L269.476 403.538L269.57 409.268L268.988 412.746L269.307 420.459L267.862 426.021L264.538 433.051L265.13 434.248L268.406 436.445L272.387 432.789L275.269 431.462L275.438 430.022L275.973 430.181L277.024 428.33L278 427.807L278.198 425.694L278.808 425.647L280.376 420.889L280.16 416.887L277.982 413.298ZM278.911 395.367L280.845 396.236L281.042 394.871L280.066 394.684L278.911 395.367ZM276.517 396.517L273.954 399.714L276.132 399.77L278.874 398.246L280.488 396.489L278.855 395.498L276.517 396.517Z" fill="#F7EBFF"/>
<path d="M222.303 340.463L224.256 341.491L224.209 342.734L223.251 342.959L223.993 343.753L222.388 343.828L220.078 344.754L220.36 343.623L221.731 341.491L222.303 340.463ZM282.554 219.118L283.765 219.352L285.783 217.987L284.262 215.397L283.352 215.594L282.572 214.995L282.413 213.733L284.356 213.799L284.638 213.013L283.38 208.545L282.047 208.47L282.807 209.723L281.277 209.143L279.737 211.247L279.578 209.835L280.535 209.339L278.198 208.704L277.231 209.433L276.639 209.134L278.517 206.862L279.24 208.199L279.878 207.61L282.216 204.824L283.98 200.542L280.826 198.878L281.427 198.028L281.145 196.868L279.127 196.064L278.902 194.681L280.573 195.522V194.718L281.408 194.737L281.587 193.157L282.92 193.129L283.689 192.306L282.732 190.904L284.412 190.614L284.469 189.147L282.732 188.389L283.52 187.464L283.089 185.959L281.643 187.408L279.334 185.94L277.738 186.744L277.409 186.052L275.888 186.033L276.846 185.314L276.47 184.042L277.118 184.379L277.475 183.687L276.827 183.734L276.855 183.051L275.729 182.911L275.56 182.359L276.423 181.78L277.719 182.051L277.606 181.182L278.827 180.312L277.522 179.527L278.845 177.414L278.686 175.657L277.24 174.806L276.292 176.115L276.564 176.872L275.316 177.844L276.489 179.256L275.09 179.461L273.673 177.255L274.227 175.395L275.006 174.787L274.63 174.039L273.71 174.002L272.631 170.431L270.641 168.897L267.392 168.393L266.219 170.505L265.374 170.309L264.961 169.299L263.741 169.673L262.727 167.626L259.572 167.551L259.469 165.167L258.878 165.214L260.708 164.401L261.056 163.232L260.07 161.895L258.596 161.531L258.915 158.726L257.742 157.156L258.23 156.352L260.436 155.426L257.686 154.622L257.498 151.462L258.793 151.154L259.901 152.145L261.309 151.696L261.065 149.957L259.225 148.265L259.788 147.209L259.554 144.516L261.093 143.843L260.605 142.488L257.207 143.282L253.32 142.927L250.495 143.74L247.528 142.768L246.702 142.207L244.496 141.029L243.116 141.712L242.656 142.731L241.069 143.46L240.44 143.871L238.741 142.703L237.38 143.787L235.906 142.731L234.62 142.693L233.916 140.87L232.451 141.216L232.498 142.048L230.489 142.142L229.635 141.562L226.697 142.301L220.886 141.889L220.801 142.394L215.863 144.086L215.225 144.834L211.892 143.338L208.822 142.927L205.48 140.113L203.415 140.487L196.675 138.832L195.548 139.16L190.826 137.178L185.578 136.897L180.706 133.429L178.472 133.036L176.181 131.55L174.219 131.559L172.924 129.568L171.356 130.278L170.934 129.475L169.892 129.802L167.648 129.026L165.029 131.111L160.879 130.278L162.034 128.876L160.983 127.969L161.114 126.567L159.847 124.492L159.781 121.631L160.504 118.92L155.472 117.377L155.528 117.508L155.857 118.724L156.702 119.275L156.439 121.285L154.909 122.117L153.867 122.08L153.632 122.183L151.341 124.482L154.13 131.288L153.538 133.635V133.934L154.092 135.299L153.191 136.449L152.994 136.523L149.398 136.869L147.098 141.048L147.051 142.572L145.07 145.264L145.211 148.162L145.155 148.415L144.085 150.341L144.704 151.322L145.014 151.556L145.324 151.406L145.418 151.565L145.634 153.912L144.967 154.828L145.981 159.642L146.169 160.194L147.436 162.718L147.408 163.728L146.967 165.934L148.028 167.57L147.868 167.701L147.446 167.71L146.882 168.056L145.859 168.748L145.897 169.29L147.859 174.46L149.764 176.386L152.111 177.601L153.106 177.48L153.35 178.022L151.961 178.209L151.173 179.246L151.032 179.966L152.243 180.901L152.506 181.013L153.069 179.976L154.458 181.107L155.585 180.125L156.477 180.948L156.57 182.939L157.152 183.332L157.368 183.659L157.021 184.575L156.092 185.145L157.641 186.847V188.137L158.101 188.52L158.091 189.614L156.984 190.353L157.021 194.185L155.2 195.017L155.172 195.616L156.486 199.767L156.261 200.169L155.641 200.533L155.416 200.814V201.664L155.294 201.935L153.247 202.908L153.181 204.469L152.984 204.628L152.599 204.441L152.083 204.74L152.459 205.292L153.219 205.525L153.557 205.656L153.979 206.834L153.125 208.582L153.266 208.844L153.895 208.592L153.989 208.769L152.618 209.826L152.562 210.929L151.05 211.836L151.651 212.77L152.374 215.687L152.89 215.902L154.036 215.64L154.702 218.875L153.181 221.418L154.965 223.157L155.153 223.605L155.19 225.251L156.27 227.036L156.411 227.588L155.885 231.327L155.932 232.057L157.275 238.171L157.143 238.32L156.035 238.573L155.716 238.993L156.101 239.648L156.383 239.863L157.866 239.648L158.251 240.854L159.321 241.508L159.03 244.21L159.575 247.491L158.777 249.034L155.04 252.072L154.684 252.109L153.782 251.904L153.21 252.006L149.192 255.101L148.441 261.196L148.591 261.477L149.276 261.467L149.661 262.037L149.793 263.879L149.924 264.206L149.286 266.974L149.426 267.123L150.065 265.87L152.637 270.489L151.717 270.993L150.637 271.265L149.642 272.667L148.506 272.601L147.305 273.031L146.385 273.106L142.498 272.882L142.179 273.181L139.701 273.003L138.527 273.742L138.048 273.789L136.847 273.686L136.237 272.863L133.439 272.714L132.181 271.994L121.038 263.365L120.033 263.627L120.109 264.954L119.78 265.281L119.414 264.702L119.198 266.076L119.818 267.366L117.508 271.405L116.438 274.583L116.851 275.471L116.4 276.238L115.311 276.388L115.161 276.892L116.138 277.145L115.574 278.856L113.856 280.183L115.077 280.8L116.297 283.427L118.729 286.437L120.897 286.961L123.798 285.502L126.351 287.821L126.624 289.279L130.698 290.41L130.886 291.383L129.186 293.187L130.679 293.748L131.824 295.066L132.491 297.889L134.913 299.011L131.993 300.142L130.782 302.423L134.397 301.591L138.321 303.48L140.959 305.583L140.902 310.145L142.066 313.202L141.747 313.604L139.87 313.128L140.471 317.531L141.484 320.27L143.287 321.738L144.113 323.953L142.273 327.534L147.624 327.104L147.258 328.899L148.009 330.525L147.295 332.788L148.647 334.564L152.177 332.301H154.261L154.862 332.862L154.421 333.507L151.379 334.152L151.323 334.844L152.881 336.602L152.721 337.845L150.121 338.341L149.088 339.294L147.859 338.219L147.652 336.807L146.835 337.752L147.014 338.92L148.835 340.996L151.388 342.089L151.135 342.912L152.308 343.772L151.539 345.52L153.426 346.334L154.224 349.69L157.284 350.999L156.974 352.457L158.701 352.401L159.312 353.009L158.307 355.533L160.936 356.159L162.09 357.982L163.94 359.281L163.855 359.852L162.522 359.571L162.926 360.665L162.532 360.927L161.396 360.441L160.203 360.787L160.213 361.721L159.368 361.422L160.372 363.086L162.015 364.367L164.174 363.825L165.667 364.797L167.676 364.909L168.821 364.105L169.826 366.658L170.821 366.022L169.967 362.497L172.163 363.526L176.895 362.077L178.425 356.206L180.547 355.72L180.678 352.485L181.673 352.429L183.945 349.148L186.452 349.007L187.193 345.997L187.878 345.361L187.184 344.81L188.714 344.361L189.625 343.034L192.263 344.081L194.3 342.716L196.018 344.903L195.633 348.231L196.111 348.68L195.267 350.428L196.093 352.494L196.731 351.541L198.233 351.55L197.707 352.335L198.055 352.943L199.585 351.485L200.561 352.074L203.988 351.803L204.204 349.381L202.749 346.53L203.565 344.305L208.09 344.118L212.634 345.604L212.831 346.24L211.733 347.259L209.395 347.773L212.887 348.475L217.947 346.923L219.365 345.371L219.637 343.791L221.824 340.388L224.19 339.313L224.181 339.808L225.27 340.687L227.363 333.517L226.969 332.666L227.504 332.647L228.574 330.03L228.706 329.871L229.325 328.786L225.871 320.906L226.359 317.942L223.871 316.203L222.782 313.062L227.523 303.33L230.029 303.003L232.057 301.797L235.615 303.171L237.943 301.704L235.643 296.599L232.207 295.057L232.968 293.748L234.179 293.495L233.174 291.196L230.743 290.766L232.179 285.615L235.296 285.035L238.093 286.662L239.99 286.166L240.769 283.502L239.07 280.819L238.929 279.248L239.492 277.706L242.74 273.845L242.684 271.255L241.689 269.507L242.271 268.236L244.101 267.404L248.814 267.684L251.048 266.534L252.973 268.348L253.977 268.404L255.864 266.833L256.568 263.776L258.84 261.935L258.634 259.541L260.868 257.718L260.492 253.886L261.929 251.212L267.223 247.65L268.181 245.846L267.345 243.911L263.337 241.676L261.91 239.246L264.83 237.423L266.679 234.73L271.429 235.02L271.598 234.599L270.265 233.683L270.641 231.748L275.747 231.645L278.93 229.355L280.704 226.868L280.047 226.55L277.4 227.504L278.545 224.017L284.084 224.279L284.234 222.876L282.234 219.978L282.554 219.118Z" fill="#F7EBFF"/>
<path d="M123.601 394.395L124.38 395.208L125.338 395.273L124.53 395.806L125.309 398.611L125.647 404.211L126.774 405.071L126.605 408.605L125.478 410.147L129.074 414.915L129.168 415.494L130.632 418.71L130.782 418.869L129.168 422.057L132.782 434.07L133.42 434.668L134.322 435.856L134.275 438.174L132.144 442.185L134.153 444.354L138.649 431.976L134.81 424.778L137.598 421.618L137.626 420.103L137.739 419.935L138.142 421.178L138.799 420.935L138.462 417.617L140.611 414.868L142.32 411.073L141.437 406.856L138.893 402.117L138.452 396.517L136.988 391.431L133.89 387.421L133.58 387.019L132.97 384.7L130.961 383.195L129.844 382.999L129.111 383.223L127.684 383.017L127.825 384.971L122.859 389.356L124.934 391.871L124.887 392.918L123.601 394.395ZM135.12 455.179L134.81 447.953L135.317 447.392L137.354 449.832L135.12 455.179ZM105.661 465.201L104.206 464.35L103.38 461.303L104.694 459.984L109.313 460.957L110.627 459.395L111.294 460.947L112.27 462.705L111.247 463.125L112.326 463.284L112.674 466.818L110.176 466.136L106.581 467.145L105.661 465.201ZM116.307 454.572L119.113 453.066L118.541 450.589L117.029 447.317L114.335 444.017L114.241 443.765L111.707 438.211L113.265 435.687L110.327 436.099L109.416 434.93L107.933 434.687L107.163 434.949L109.172 436.725L109.585 438.38L106.571 442.961L108.609 444.008L109.416 445.363L108.778 446.42L105.82 448.233L107.989 449.205L110.28 451.589L111.866 451.187L113.18 452.01L113.209 453.627L111.725 455.478L112.326 458.414L113.124 458.61L112.073 459.236L113.509 460.816L114.758 456.479L116.307 454.572ZM100.178 466.996L100.357 468.65L99.296 469.922L96.8646 469.894L93.5413 465.313L91.232 463.686L92.6589 457.423L92.0393 455.291L90.2744 453.468L90.2181 452.038L90.434 451.271L91.645 450.944L92.5181 451.243L92.6683 454.3L94.7711 457.124L94.0765 460.611L94.8932 462.864L99.005 465.332L99.0425 466.173L100.178 466.996ZM111.115 472.166L113.312 473.194L111.876 474.914L110.082 474.774L110.561 475.353L110.176 475.84L106.027 476.475L105.595 475.064L107.041 471.969L107.501 472.119L109.012 472.895L110.007 472.596L111.115 472.166ZM99.6997 447.635L102.375 444.12L101.84 441.801L102.723 441.699L103.633 441.727L104.6 443.55L108.646 445.111L105.257 447.308L105.792 449.663L106.778 450.467L108.552 450.383L109.04 451.786L109.932 452.328L112.467 452.571L111.078 454.59L110.937 454.777L111.481 457.283L109.228 460.442L104.431 459.423L105.886 451.458L103.342 450.748L102.91 450.72L101.446 450.851L99.8311 449.607L99.6997 447.635ZM116.936 426.731L117.255 429.003L116.429 431.462L118.231 430.938L118.165 432.612L120.343 434.444L120.982 432.406L123.038 431.546V431.153L123.141 428.919L125.92 427.722L127.919 429.901L128.886 428.433L127.666 425.31L127.534 423.17L127.619 420.58L124.258 422.029L124.089 422.281L123.263 420.935L123.535 419.879L121.32 418.813L120.343 419.748L119.395 418.617L117.724 419.926L118.635 420.169L118.822 420.814L118.071 421.552L117.752 423.357L116.541 423.74L116.654 425.086L115.893 425.871L116.936 426.731ZM131.946 435.472L130.219 434.93L129.102 433.416L128.895 430.546L129.6 430.275L130.623 431.2L131.308 433.416L131.946 435.472ZM110.589 466.388L112.373 467.117L112.814 469.006L112.082 471.371L110.956 471.633L110.608 471.689L109.134 472.586L107.078 471.446L106.703 467.51L110.589 466.388ZM126.952 437.099L130.754 435.351L132.416 436.538L128.811 439.268L126.793 437.772L126.952 437.099ZM151.492 454.095L152.825 457.946L152.609 458.937L151.05 459.48L149.088 459.078L148.863 458.461L146.422 458.956L146.197 455.777L145.249 454.431L147.079 452.58L148.347 449.037L147.765 444.466L148.666 443.176L149.041 443.578L149.304 444.989L149.952 445.746L150.853 445.915L149.933 447.616L151.351 450.365L149.961 452.861L151.492 454.095ZM163.301 447.382L164.512 452.132L163.564 454.656L162.1 455.656L161.452 454.899L160.964 455.189L161.03 457.572L156.88 458.461L155.801 459.517L154.89 459.068L155.284 457.582L153.228 457.283L152.074 454.02L150.375 452.599L151.755 451.206L151.248 449.252L150.29 447.467L151.492 446.644L151.05 445.503L150.375 445.344L149.624 444.98L149.558 443.073L148.769 442.848L149.342 440.483L147.023 438.857L149.839 436.856L150.065 431.63L153.116 431.153L153.792 431.209L154.599 432.593L155.453 435.5L159.819 438.875L160.194 439.034L161.227 439.015L162.879 441.325L163.301 447.382ZM143.005 455.46L143.155 454.422L144.263 453.627L145.559 456.114L144.601 457.264L143.005 455.46ZM167.545 399.424L165.63 398.863L165.066 397.667L165.695 396.171L168.033 396.124L172.135 397.218L172.098 395.975L168.296 395.732L171.009 392.301L171.994 388.355L171.103 387.374L167.986 386.925L168.765 383.242L165.733 381.596L166.512 379.988L167.789 381.409L168.615 381.026L169.826 379.942L169.103 379.1L166.906 378.352L164.231 378.857L163.377 378.053L167.197 375.314L169.253 375.772L169.516 372.986L167.742 373.108L167.854 371.799L167.019 370.958L170.201 370.397L169.751 368.929L168.033 368.723L169.826 366.648L168.831 364.096L167.685 364.9L165.677 364.788L164.184 363.815L162.025 364.358L160.382 363.077L159.387 361.413L160.232 361.712L160.222 360.786L161.415 360.441L162.344 360.768L162.748 360.506L162.344 359.412L163.677 359.693L163.761 359.122L161.912 357.823L160.757 356L158.129 355.374L159.133 352.85L158.523 352.242L156.796 352.298L157.106 350.84L154.045 349.531L153.247 346.175L151.36 345.361L152.13 343.613L150.957 342.753L151.21 341.94L148.657 340.846L146.845 338.771L146.666 337.602L147.493 336.658L147.699 338.079L148.929 339.154L149.961 338.2L152.562 337.705L152.721 336.461L151.163 334.704L151.219 334.012L154.261 333.367L154.702 332.722L154.111 332.161H152.027L148.497 334.423L147.145 332.657L147.859 330.404L147.108 328.777L147.474 326.982L142.123 327.412L143.963 323.832L143.137 321.616L141.334 320.148L140.32 317.409L139.72 313.006L141.597 313.483L141.916 313.081L140.752 310.024L140.808 305.462L138.171 303.358L134.246 301.47L130.642 302.311L131.862 300.03L134.782 298.899L132.36 297.777L131.693 294.954L130.548 293.645L129.055 293.084L130.754 291.28L130.566 290.308L126.492 289.176L126.22 287.718L123.667 285.4L120.766 286.858L118.597 286.334L116.166 283.324L114.861 280.688L113.64 280.071L115.358 278.743L115.922 277.033L114.945 276.78L115.096 276.275L116.185 276.126L116.635 275.359L116.231 274.471L117.302 271.292L119.611 267.254L118.991 265.973L119.207 264.599L119.573 265.179L119.911 264.851L119.836 263.524L116.307 261L115.884 260.57L114.88 258.887L110.017 256.914L109.294 256.737L108.665 257.868L107.923 260.28L106.083 261.476L105.21 261.112L103.943 257.382L103.68 257.372L102.816 258.878L101.859 259.317L98.1695 258.036L96.0009 258.055L95.7568 256.942L92.9311 255.961L91.1944 250.389L90.9128 249.978L88.9226 243.91L88.3312 243.013L83.4777 242.499L82.7173 242.312L81.9851 241.929L80.4361 242.695L80.6051 241.686L80.5112 241.639L79.6475 241.901L79.441 242.069L79.6194 243.125L79.5067 243.256L76.6529 244.397L76.4463 244.387L77.0659 243.144L76.9157 242.985L75.7141 243.462L75.3292 243.396L68.6545 241.097L65.8945 238.283L63.8762 234.45L63.8011 235.628L62.5056 235.357L61.9611 237.6L60.9472 238.619L61.886 243.116L60.5248 243.639L60.9848 245.406L63.2378 245.313L62.9562 248.183L64.2986 248.79L63.0407 249.454L64.1109 250.024L64.4394 251.165L64.3174 253.156L63.388 254.989L66.1668 253.689L67.2464 255.923L64.6647 255.933L64.0827 256.55L64.7305 260.579L63.9137 261.168L63.7917 262.767L61.2007 262.776L61.3509 264.113L60.3182 264.038L59.7268 265.057L58.1027 265.543L57.3705 267.058L54.7983 267.656L53.7938 266.347L52.5452 267.413L51.4375 266.815L50.095 267.862L50.0575 268.376L51.0526 268.722L51.1183 270.273L52.3574 271.947L51.0338 272.386L51.5126 273.48L50.6113 273.919L50.4705 274.695L48.6211 275.06L50.3391 276.846L49.053 281.66L49.8979 286.138L48.8277 288.578L51.5313 289.102L51.353 291.168L50.5175 292.504L52.1134 292.243L52.395 292.757L56.1501 291.813L55.6056 293.215L56.4599 294.075L57.408 297.085L59.6141 298.385L60.5905 300.423L63.4068 301.292L64.7774 303.91L65.8382 304.162L66.2513 303.405L67.2088 304.003L67.19 302.863L67.9974 302.302L69.6778 302.563L69.781 304.246L68.7953 305.415L69.0206 307.649L67.8753 308.173L66.7582 307.518L66.0635 309.781L66.2982 311.024L65.6692 312.576L66.4953 315.212L63.9701 316.68L65.0684 320.139L64.5333 320.438L63.388 319.475L63.0219 321.158L61.8672 320.251L60.7876 321.401L63.1064 323.944L62.8154 325.552L65.1717 327.001L67.0304 326.804L68.3917 328.796L69.537 329.067L71.0672 328.973L70.5321 326.43L70.6166 325.823L71.3957 325.711L72.541 326.309L73.1418 326.954L74.4655 328.216L79.8071 327.702L80.3047 329.759L81.1496 329.347L83.1773 330.301L85.6275 328.45L86.9512 329.366L86.3222 329.88L85.8246 332.311L84.6606 331.282L84.0316 331.497L83.3745 332.834L81.9569 333.461L81.3843 336.359L80.6238 336.274L80.4643 337.546L79.3377 337.976L78.4083 339.444L75.9582 340.463L75.6859 342.968L76.8124 345.754L76.2961 349.073L73.9492 349.25L75.8173 350.466L75.8831 352.438L75.2447 353.728L78.23 354.168L78.3614 356.411L79.8447 357.178L78.9247 358.571L79.4504 361.076L81.4969 361.974L82.6798 361.076L84.5761 364.376L83.7781 368.938L82.0602 369.668L80.4549 371.668L80.3516 374.295L83.8532 378.708L82.7924 381.624L81.4406 382.971L81.8443 385.467L83.4214 385.121L84.0785 385.7L82.2198 388.094L82.2761 390.842L84.1442 392.011L85.7026 397.62L87.4393 399.452L86.7071 401.677L87.6365 403.369L85.2238 405.361L87.214 407.361L86.0875 408.53L86.6883 409.455L86.2002 413.064L87.6271 413.316L89.7675 415.943L87.4487 415.971L87.1952 416.962L89.2512 418.29L88.9508 419.729L90.5936 419.421L91.3634 422.347L93.8793 424.983L94.1515 425.479L93.2691 427.545L93.6822 429.293L94.0765 429.658L95.7381 428.48L96.3483 429.078L96.2262 430.041L91.6075 434.64L92.2458 437.585L94.8932 438.501L93.363 438.557L95.3438 441.979L95.372 442.465L95.9634 449.392L95.4283 448.682L94.7711 450.617L94.4332 452.608L96.2262 455.749L96.5079 460.489L96.1699 461.274L100.976 463.088L102.281 462.209L103.173 458.937L103.774 455.422L105.182 452.066L100.207 451.617L98.9487 448.579L99.5119 446.41L101.756 444.344L100.291 440.109L100.92 438.688L102.629 437.922L100.901 440.175L101.727 441.166L103.905 441.455L105.492 443.54L109.031 438.37L108.271 436.781L106.412 435.528L105.576 432.808L105.342 431.714L106.168 431.228L105.661 429.901L108.684 428.554L106.994 424.918L108.702 423.338L108.205 422.02L108.665 420.505L109.144 418.234L110.392 417.112L109.463 418.598L109.125 422.674L114.185 423.039L114.391 421.851L113.396 419.907L114.889 421.291L114.542 423.366L116.034 425.049L116.26 423.665L117.367 422.936L117.593 421.917L118.569 420.561L117.133 419.991L118.1 419.178L118.278 418.981L119.067 418.346L120.221 418.467L120.437 419.056L121.216 418.383L123.685 419.43L124.981 417.448L124.277 416.485L123.131 415.046L124.061 413.578L122.202 412.222L122.615 411.147L121.047 410.886L121.019 408.717L119.404 408.904L119.724 407.099L118.776 404.538L119.874 400.901L118.55 401.322L117.696 400.144L110.026 401.163L110.176 399.779L112.495 398.994L110.993 397.835L116.156 395.245L116.203 396.535L118.287 397.489L117.48 398.845L117.668 399.677L118.541 399.116L121.301 399.938L121.873 399.069L124.089 399.004V397.405L123.066 395.096V394.834L124.408 392.188L121.573 388.711L120.991 386.448L122.728 385.429L123.319 383.494L123.638 383.083L123.892 383.429L124.605 385.336L123.648 388.075L127.572 384.85L127.562 382.774L129.093 383.017L130.229 382.391L133.233 384.476L133.749 385.654L134.04 386.074L134.331 386.336L137.992 391.88L139.954 399.424L141.541 395.947L143.484 395.068L143.108 393.497L143.597 391.553L145.371 392.142L145.671 392.198L147.708 390.038L148.488 390.375L147.389 391.74L147.69 392.151L150.281 391.356L153.81 393.404L155.209 394.535L156.646 395.124L156.768 396.283L158.054 397.704L161.471 397.807L164.954 402.36L165.038 403.51L167.892 401.799L169.948 401.378L170.708 400.266L169.704 399.172L167.545 399.424ZM124.089 385.214L122.456 389.29L121.789 388.374L121.235 386.411L122.869 385.691L123.422 383.719L124.089 385.214ZM145.493 460.433L148.966 463.191L148.816 465.145L146.206 466.771L144.667 466.809L144.16 466.267L143.296 466.528L140.959 465.799L141.738 463.761L141.391 462.322L136.152 457.367L136.359 456.843L135.486 455.338L137.88 449.738L139.044 448.747L140.733 448.616L142.095 448.888L144.226 452.057L142.423 454.646L142.47 456.572L145.493 460.433ZM164.428 402.462L160.908 398.143L157.594 397.863L155.772 395.301L153.482 393.535L150.149 391.59L147.558 392.553L146.995 391.656L145.709 392.562L143.953 392.319L143.653 393.32L143.888 395.348L141.851 396.451L139.663 400.415L142.142 405.276L143.202 410.586L142.658 413.354L139.522 417.832L140.011 419.954L139.203 422.487L138.058 423.506L136.227 423.927L136.03 424.637L140.677 431.696L139.738 435.519L137.804 438.744L135.57 447.345L137.316 449.177H138.002L138.64 448.214L139.1 448.42L142.423 448.56L142.677 448.878L145.193 452.87L146.206 452.412L146.92 451.066L147.746 447.906L146.873 444.933L148.873 440.67L147.117 439.876L146.507 438.885L147.314 437.464L147.802 437.445L149.398 436.669L149.605 433.911L149.717 431.63L148.065 427.161L147.84 425.095L148.3 425.338L149.595 424.656L150.234 425.572L149.839 426.432L148.403 426.535L148.619 427.76L150.149 431.191L152.759 430.705L154.083 431.191L155.2 433.079L155.538 434.958L157.847 436.968L158.345 436.716L159.584 437.585L161.724 437.772L164.484 434.678L165.188 432.191L164.484 425.965L163.142 424.114L161.339 423.198L160.879 421.421L162.109 416.261L165.601 409.633L165.63 408.062L163.677 405.052L164.428 402.462ZM123.657 414.662L124.718 413.026L124.521 411.11L127.562 414.27L129.44 418.159L127.938 419.963L127.027 420.197L124.352 421.552L123.976 420.795L125.46 417.682L124.868 416.308L123.657 414.662ZM113.903 423.572L114.88 426.002L111.237 429.658L110.533 430.938L110.655 433.004L109.698 434.005L106.449 434.435L105.576 431.854L107.294 431.228L106.111 430.088L108.937 428.676L107.276 425.039L109.04 423.385L113.903 423.572ZM111.735 432.78L111.941 433.182L110.524 435.304L113.65 434.519L114.42 435.454L114.391 436.678L114.147 436.977L112.749 437.968L115.847 444.251L117.902 446.373L117.339 440.997L121.188 435.341L117.968 433.135L117.94 431.322L116.757 432.069L115.987 431.63L116.682 429.461L116.513 426.778L115.884 426.47L112.758 429.489L111.735 432.78ZM130.707 440.923L129.374 439.137L132.669 436.632L133.064 437.211L132.641 438.548L130.707 440.923ZM139.062 466.341L140.837 469.941L139.241 470.642L137.42 470.52L136.162 469.567L134.293 465.369L134.725 464.902L135.626 465.584L135.213 463.742L135.711 463.191L134.012 460.34L134.932 457.703L140.508 462.359L140.377 464.584L139.156 465.565L139.062 466.341ZM132.435 448.392L132.303 449.916L132.35 450.299L131.768 452.281L127.149 452.15L127.975 450.72L127.835 449.336L125.863 448.392L124.483 446.504L125.995 444.559L125.356 438.828L126.192 437.959L128.248 439.427L128.82 439.567L131.759 446.85L131.89 447.111L132.435 448.392ZM118.222 459.414L117.029 460.957L116.907 463.696L114.945 459.723L114.636 457.685L119.536 454.628L118.222 459.414ZM127.544 459.704L127.318 458.32L124.802 458.077L124.493 457.694L126.736 457.741L127.422 457.198L127.741 454.151L128.858 452.898L126.718 452.44L126.549 451.636L127.591 449.925L125.159 448.588L124.08 446.663L124.699 445.167L125.46 444.634L124.802 439.23L126.802 436.828L126.896 436.697L130.003 435.341L127.656 432.443L128.022 430.275L125.751 428.424L123.526 429.265L123.207 431.845L121.057 432.761L121.714 436.211L118.316 441.362L119.273 447.626L120.756 450.692L120.972 454.973L117.94 461.92L118.578 462.761L119.02 467.323L120.315 468.866L122.371 469.95L124.192 469.277L124.755 467.893L126.417 466.669L126.624 465.378L127.281 465.799L129.093 463.21L128.952 461.555L127.544 459.704Z" fill="#F7EBFF"/>
<path d="M144.817 154.8L145.831 159.614L146.019 160.166L147.286 162.69L147.258 163.7L146.817 165.906L147.877 167.542L147.718 167.673L147.295 167.682L146.732 168.028L145.709 168.72L145.746 169.262L147.708 174.432L149.614 176.358L151.961 177.573L152.956 177.451L153.2 177.994L151.811 178.181L151.022 179.218L150.882 179.938L152.092 180.873L152.355 180.985L152.919 179.948L154.308 181.079L155.435 180.097L156.326 180.92L156.42 182.911L157.002 183.304L157.218 183.631L156.871 184.547L155.941 185.117L157.49 186.819V188.109L157.95 188.492L157.941 189.586L156.833 190.324L156.871 194.157L155.05 194.989L155.021 195.588L156.336 199.738L156.11 200.14L155.491 200.505L155.266 200.786V201.636L155.144 201.907L153.097 202.88L153.031 204.441L152.834 204.6L152.449 204.413L151.933 204.712L152.308 205.264L153.069 205.497L153.407 205.628L153.829 206.806L152.975 208.554L153.116 208.816L153.745 208.564L153.839 208.741L152.468 209.798L152.412 210.901L150.9 211.808L151.501 212.742L152.224 215.659L152.74 215.874L153.886 215.612L154.552 218.847L153.031 221.39L154.815 223.129L155.003 223.577L155.04 225.223L156.12 227.008L156.261 227.56L155.735 231.299L155.782 232.029L157.124 238.142L156.993 238.292L155.885 238.544L155.566 238.965L155.951 239.62L156.232 239.835L157.716 239.62L158.101 240.826L159.171 241.48L158.88 244.182L159.424 247.463L158.626 249.006L154.89 252.044L154.533 252.081L153.632 251.876L153.059 251.978L149.042 255.073L148.29 261.168L148.441 261.449L149.126 261.439L149.511 262.009L149.642 263.851L149.774 264.178L149.135 266.945L149.276 267.095L149.915 265.842L152.487 270.461L151.567 270.965L150.487 271.236L149.492 272.639L148.356 272.573L147.155 273.003L146.235 273.078L142.348 272.854L142.029 273.153L139.551 272.975L138.377 273.714L137.898 273.761L136.697 273.658L136.086 272.835L133.289 272.686L132.031 271.966L120.888 263.337L119.883 263.599L116.353 261.075L115.931 260.645L114.927 258.962L110.064 256.989L109.341 256.812L108.712 257.943L107.97 260.355L106.13 261.551L105.257 261.187L103.99 257.457L103.727 257.447L102.863 258.952L101.906 259.392L98.2164 258.111L96.0479 258.13L95.8038 257.017L92.9781 256.036L91.2413 250.464L90.9597 250.053L88.9695 243.985L88.3781 243.088L83.5247 242.574L82.7642 242.387L82.032 242.003L80.483 242.77L80.652 241.76L80.5581 241.714L79.6945 241.975L79.4879 242.144L79.6663 243.2L79.5536 243.331L76.6998 244.471L76.4933 244.462L77.1128 243.219L76.9626 243.06L75.761 243.537L75.3761 243.471L68.7015 241.171L65.9415 238.357L63.9231 234.553L64.3362 229L63.0313 226.195L61.5386 225.045L58.6942 224.447L54.8452 225.316L54.4791 224.475L52.9207 224.307L52.5828 224.858L51.2591 224.437L51.015 223.418L49.5599 223.269L48.2644 226.232L45.955 221.67L44.0587 221.624L38.8861 218.529L36.9992 218.052L33.92 218.997L31.7139 218.922L28.7474 217.94L23.6592 212.63L17.0409 210.536L14.9099 207.685L12.4503 206.217L8.57316 202.076L3.5038 193.596L0.33075 190.708L5.09971 185.463L5.89766 183.565L5.32501 182.743L5.98215 181.827L5.60664 180.864L6.51725 180.733L7.29643 179.602L8.71398 179.901L8.8454 177.498L10.1691 175.853L11.2768 174.881L12.3846 173.104L13.8491 172.543L13.6707 171.403L13.6989 170.3L13.0323 169.617L14.4029 169.271L11.765 166.663L11.6899 164.859L13.0135 165.121L15.2478 163.148L19.4629 162.615L22.5984 166.57L23.8188 168.739L23.9972 169.552L25.8465 169.767L26.1939 171.179L27.818 170.113L30.0335 169.094L28.1372 167.318L29.0008 166.635L29.489 164.597L31.3947 163.401L33.2441 164.709L34.7461 163.952L34.0514 162.4L34.3988 161.708L36.1449 161.241L35.8069 159.362L36.7551 158.081L37.8253 158.119L39.3461 155.314L37.8253 153.912L39.2616 151.117L38.3791 146.601L40.1253 145.087L39.7497 142.899L38.5481 141.74L38.642 139.87L40.9044 139.721L41.4489 138.234L43.3828 138.393L43.4861 139.001L46.6403 139.449L46.5465 140.44L48.6211 140.104L48.5648 141.516L49.1938 141.674L50.4424 141.506L51.4468 140.104L53.6999 138.935L58.3937 139.459L59.4264 138.552L61.8109 138.599L63.848 139.468L64.1015 140.655L65.5753 141.665L67.4153 140.394L67.8378 141.422L70.1284 142.198L71.0859 141.88L72.5692 138.935L73.7427 138.459L74.4843 139.449L75.5826 139.421L76.559 141.366L78.3802 141.029L79.7132 141.506L79.8634 142.422L80.6238 142.703L81.2153 140.983L82.7642 141.076L82.6328 139.468L81.7316 139.291L81.6565 137.795L82.8957 138.253L83.7781 137.655L83.1022 135.56L83.4308 134.121L85.543 132.625L88.6503 135.486H95.4001L96.245 136.869L101.727 137.795L105.952 137.337V138.72L104.685 140.571L105.107 142.422L106.374 145.189L109.331 147.041L110.599 150.275L113.133 151.201L115.668 149.817H118.203L121.16 153.51L123.272 154.893H124.117L124.962 153.51H127.497L135.091 157.661H136.781L140.583 155.351L144.817 154.8Z" fill="#F7EBFF"/>
<path d="M144.817 154.8L140.517 155.249L136.725 157.558H135.035L127.44 153.407H124.906L124.061 154.79H123.216L121.113 153.407L118.156 149.714H115.621L113.096 151.098L110.561 150.182L109.294 146.947L106.346 145.105L105.079 142.329L104.656 140.487L105.924 138.636V137.252L101.699 137.711L96.2169 136.785L95.372 135.401H88.6222L85.5149 132.55L86.2283 131.802L87.9838 132.214L88.3312 130.26L86.4255 130.25L85.8716 129.269L85.252 129.633L83.5153 129.082L82.5108 129.661L81.8255 128.764L80.821 129.493L79.1406 126.408L77.7982 126.632L77.5729 127.67L76.1271 126.146L76.0802 125.202L73.6112 123.819L73.7333 120.967L71.2549 119.406L72.5035 118.929L73.0292 117.779L72.297 116.256L73.4798 115.05L73.2076 113.488L72.5786 111.955L71.0484 111.796L70.6823 108.646L69.5464 108.468L68.2133 109.328L66.5047 108.487L66.4954 109.74L67.3778 110.628L67.0586 111.291L64.7586 111.899L64.3925 110.338L61.9517 110.833L61.8672 112.544L60.8815 113.451L57.9056 113.376L57.4362 112.507L56.5632 112.769L56.4036 111.039L54.3383 111.002L53.0146 109.281L52.0101 110.17L50.2546 110.02L48.0767 108.842L47.1567 109.908L46.9783 107.571L46.3493 106.683L45.4293 107.356L44.3028 106.468L43.0918 104.972L43.3922 102.7L40.9702 102.719L39.731 101.251L38.6702 101.186L39.0269 98.9045L39.7028 98.2034L39.5808 95.0436L35.2155 94.1929L35.1592 92.9215L34.1265 92.9869L33.9012 92.0801L32.3898 91.7248L32.6996 90.014L31.1882 89.4999L31.0661 88.7426L28.0808 87.8358L27.48 86.3214L23.3025 83.4981L23.6498 81.8621L23.1429 80.7683L22.5421 80.4037L21.547 80.5252L21.1715 81.217L20.4205 80.8992L19.9698 82.0584L18.6556 81.7966L17.745 82.9652L16.5339 81.6845L15.7829 81.6751L14.7784 83.0587L13.8866 82.853L12.7507 84.0964L12.0748 83.6103L11.8495 82.1519L9.70908 81.8808L9.98132 80.572L9.17398 80.2728L8.60133 79.0575L9.22091 78.0479L8.50745 77.3748L9.54948 76.4773L8.48867 73.3829L8.9299 72.8781L7.5499 72.4854L7.40909 71.6721L7.17439 70.0081L7.82214 68.8395L9.38051 68.4095L9.81234 66.1938L10.7229 65.3899L10.3944 64.3896L12.3095 62.1179L12.0654 61.0428L15.858 59.8555L14.6282 59.0048L15.0788 58.4252L15.3511 57.6679L15.1258 56.677L15.8393 56.3404L15.7735 55.5271L14.1495 54.0874L13.6144 53.0123L15.3229 50.2078L14.9005 49.9647L15.276 48.0576L16.7686 47.5528L17.698 46.8516L19.585 45.9542L20.4111 45.1969L20.1107 44.4864L21.378 43.8227L21.7629 44.3275L23.6968 44.0844L25.2364 42.6915L25.8372 43.187L27.5739 42.6634L28.7098 41.4107L30.409 40.8405L31.1318 38.8773L30.3527 38.4285L30.3433 34.8574L33.6571 31.735L36.0041 31.5106L35.1967 30.1083L35.8914 29.5006L37.9379 29.4632L39.684 25.9014L40.0502 27.257L42.2469 28.2853L42.5285 27.2476L44.162 27.2009L43.8991 28.4069L45.5701 27.2476L44.8191 26.883L44.8003 26.0136L45.204 24.5178L44.5938 24.6207L43.9555 23.4802L44.331 22.7697L43.073 22.5266L42.8853 21.7507L43.242 20.8345L43.2232 20.0025L41.5804 18.2356L41.9089 17.3942L37.891 16.9548L36.5392 17.0016L34.9808 15.029L33.8167 15.646L31.742 14.8701L30.7094 18.89L30.118 16.8894L28.8131 15.6928L28.8318 14.2344L30.4184 12.4395L31.1882 8.95245L32.2302 7.70908L31.9673 6.34419L32.6151 4.50252L33.7322 3.57701L33.6008 2.81042L35.713 0.52002L36.6518 6.9238L37.7032 9.05528L39.0081 10.121L40.0596 9.01789L42.1624 9.58815L42.8477 12.2431L45.5608 13.0191L45.7297 15.3936L48.7526 14.6925L47.9734 15.7956L48.9403 16.2724L48.4052 17.8149L51.9162 18.5347L51.7566 16.3565L54.0003 16.4313L54.3383 19.8996L56.5444 20.6943L56.2252 21.5824L57.5395 21.7226L58.3844 22.6575L59.8676 22.3022L59.8958 23.2184L60.0366 24.5739L59.3795 25.2564L60.6844 26.9391L60.675 28.7528L61.3603 29.725L64.0733 27.7151L65.3031 27.8927L66.3921 29.7811L65.9696 31.146L66.3921 33.0064L69.6778 31.791L71.668 32.997L71.1517 35.0257L71.4614 36.9795L72.9447 37.7274L72.6819 38.3164L73.8929 39.4569L77.2631 39.0082L75.761 37.1665L75.7704 35.2594L77.5447 33.8851L81.6377 34.203L83.703 38.1294L84.7638 38.7464L90.6969 37.9237L92.2646 38.5407L92.7434 37.1291L93.4944 37.4095L92.7997 35.1939L93.485 34.8948L93.1001 33.6514L92.0675 33.399L91.9454 34.2778L90.3026 34.4741L89.4483 33.8103L88.763 32.6605L87.7304 33.7262L87.6553 32.8942L86.6508 32.6044L86.6789 31.0992L87.3642 30.6599L88.0402 30.2859L86.7071 29.5006L86.6132 27.9955L84.5855 27.7898L84.1818 29.8933L83.6936 28.893L83.29 28.304L83.1304 27.2944L81.6659 26.4904L80.8867 26.9859L80.3235 26.266L80.2014 25.6958L79.9667 24.9666L80.7553 24.2841L80.8492 23.1997L79.5631 22.1713L81.6753 22.0124L81.3373 20.6195L81.5439 19.8062L83.0928 20.5073L83.6749 19.4977L83.2618 18.3291L84.2287 17.1979L86.4912 18.4506L86.1251 19.4509L87.0263 21.0869L87.5426 20.8065L88.0871 20.8438L88.6504 21.8348L89.9083 21.76L90.9785 23.5456L91.7671 23.0782L94.6867 23.8541L95.5973 23.4147L96.3764 23.9756L95.8789 26.2006L95.0058 26.64L96.414 27.0513L96.7895 29.3698L96.5736 30.1831L98.1038 31.2021L100.075 31.0432L99.9626 32.0995L99.7279 33.0998L98.8454 34.1843L97.2683 31.4171L96.9397 32.3987L97.4748 33.9132L96.9022 34.7826L98.8454 36.2877L98.6577 37.5591L100.291 39.3447L100.329 41.1022L101.033 41.9436L99.7373 44.7108L101.634 46.5899L100.929 46.8329L101.446 48.3848L102.629 49.6749L104.76 50.3573L105.698 49.8806L107.614 50.2919L110.007 53.2461L111.312 53.3021L110.374 55.9852L111.754 56.2843L112.26 57.4342L114.166 57.4062L116.25 58.5934L118.372 61.1643L122.409 61.5196L122.296 60.2295L123.601 59.2385L123.751 58.3597L125.15 57.7614L125.976 58.6963L125.45 60.6782L125.938 61.3513L129.44 62.5011L130.782 61.5663L132.078 62.1553L133.223 61.3793L135.073 61.6598L136.068 62.1926L134.969 63.2303L135.185 65.044L136.443 65.6142L137.448 64.2961L138.208 64.1839L139.325 64.5485L139.419 62.7629L138.706 61.8748L139.137 59.8368L139.269 58.6495L139.795 57.8923L141.616 57.0509L142.911 56.2189L144.78 56.0226L143.409 54.6016L143.963 53.433L143.015 51.8157L142.376 52.4888L141.907 52.9936L141.156 53.6387L139.851 52.4047L139.973 51.769L140.264 51.2361L141.804 51.8625L143.043 50.6565L142.648 49.7871L141.466 49.8806L140.865 50.8809L139.673 46.9638L140.114 46.6179L141.334 47.3097L141.259 46.5618L141.372 45.6363L141.86 44.9165L142.32 45.5615L143.118 45.5241L144.704 46.2159L145.343 44.823L143.784 44.8417L142.771 44.1218L143.146 43.2992L144.31 44.3088L144.808 43.7572L143.362 41.794L143.456 40.0926L145.174 40.9901L146.591 40.9714L147.371 39.3167L147.999 40.1954L148.281 40.7657L148.403 41.7847L147.145 42.0277L146.864 42.6541L147.821 43L148.046 44.5893L149.398 45.5335L147.877 45.8981L147.586 46.6273L149.924 47.3564L150.553 45.9355L150.938 47.1508L153.416 47.0947L155.153 49.8245L154.139 51.61L156.599 51.9746L156.495 54.1155L157.603 54.05L157.331 54.9288L158.044 56.5928L156.711 56.9107L157.049 57.7147L156.871 58.341L157.368 58.9019L158.101 58.3691L158.889 58.1167L160.035 61.3045L159.293 62.9312L159.762 63.651L161.236 64.025L160.757 62.4264L161.217 61.1737L162.081 61.9028L162.41 63.3893L164.372 64.5018L164.081 65.1468L161.386 65.6797L162.269 67.3718L160.673 66.895L160.222 67.6522L161.79 68.3908L164.541 67.699L165.686 67.9794L164.907 69.9987L161.086 74.7852L161.236 76.1127L160.419 76.3932L160.457 77.917L159.021 79.9082L160.382 80.8337L161.574 84.6293L160.532 88.8081L161.067 90.0701L162.635 90.5376L162.391 92.4447L164.344 95.483L165.367 98.8578L164.052 104.766L164.25 106.486L162.823 107.187L163.377 109.562L162.588 111.665L162.719 114.171L160.363 118.901L155.331 117.359L155.388 117.49L155.726 118.705L156.57 119.247L156.308 121.266L154.777 122.098L153.726 122.061L153.491 122.164L151.201 124.464L153.979 131.269L153.388 133.625V133.924L153.942 135.289L153.041 136.43L152.844 136.505L149.248 136.85L146.948 141.029L146.911 142.553L144.93 145.246L145.071 148.144L145.014 148.396L143.944 150.312L144.564 151.303L144.864 151.528L145.174 151.378L145.268 151.528L145.484 153.874L144.817 154.8Z" fill="#F7EBFF"/>
<path d="M288.59 139.917L289.472 140.375L289.238 140.833L291.998 141.17L293.406 142.142L294.955 142.347L295.668 141.815L296.307 142.628L298.766 142.918L300.221 142.347L301.132 143.703L302.521 144.367L304.746 144.264L305 145.834L307.506 145.676L308.389 144.75L312.453 144.348L313.167 143.441L314.246 143.264L314.34 142.086L317.607 141.787L317.739 142.347L316.368 143.329L316.565 144.685L318.349 144.759L318.565 146.367L319.992 146.91L323.024 145.414L324.507 145.33L325.512 143.432L328.741 144.161L329.52 141.413L332.074 142.525L336.721 141.16L339.603 141.6L344.419 140.711L350.277 141.815L352.492 140.412L353.947 141.198L357.834 140.515L363.551 143.086L364.039 143.413L363.532 144.713L366.01 145.563L367.756 146.984L369.146 146.367L371.699 147.209L369.934 147.508L371.803 149.378L378.965 151.752L380.289 150.845L381.857 151.182L382.627 152.192L381.8 153.697L383.772 153.79L384.279 154.445L389.339 155.725L388.522 159.081L388.954 161.344L390.484 161.886L391.77 160.998L392.934 162.83L391.62 162.606L391.029 163.185L392.484 164.242L393.413 164.233L394.295 163.092L394.483 166.168L395.657 167.897L394.821 168.318L395.253 170.001L394.521 170.814L392.634 171.122L390.775 170.505L390.578 171.88L389.367 172.207L389.292 172.917L387.264 172.992L386.016 172.609L385.086 171.478L383.866 171.038L383.406 170.075L382.533 170.197L380.777 168.982L379.378 168.832L377.51 166.392L376.168 167.86L374.807 167.766L373.934 167.663L373.699 166.981L372.835 167.336L372.422 168.393L373.305 170.253L372.422 171.132L372.732 173.179L373.896 173.955L375.858 175.226L376.327 178.377L377.069 178.938L376.478 180.854L377.144 181.518L376.337 183.322L377.501 184.005L374.375 188.604L373.333 191.624L372 199.019L371.568 206.713L366.968 204.422L366.508 203.422L364.968 204.357L365.466 205.497L364.668 206.647L365.644 209.676L365.128 210.424L365.935 211.761L365.607 212.49L366.461 213.285L365.935 214.126L363.504 213.902L362.143 217.454L359.092 218.782L352.154 217.968L351.262 217.005L350.042 217.632L348.981 217.332L348.145 217.978L351.112 222.044L350.859 223.774L349.019 222.783L348.981 221.465L347.488 220.427L344.259 222.39L346.146 228.906L343.517 238.058L343.33 240.872L341.433 241.368L340.579 240.339L339.997 237.834L337.34 235.572L338.063 235.142L337.988 234.02L337.415 233.281L335.04 234.506L334.346 233.506L332.89 233.356L328.694 230.86L330.346 240.76L327.661 240.854L325.756 239.947L325.117 238.928L324.207 239.246L323.55 238.283L322.085 234.422L322.019 232.459L320.302 233.982L321.372 236.544L321.043 237.628L320.133 237.74L320.151 239.62L319.241 241.153L319.795 243.35L319.072 244.658L317.128 245.416L316.096 245.051L315.57 245.416L315.739 246.79L314.969 247.108L311.252 247.183L306.962 245.986L306.445 245.117L302.362 245.098L299.386 243.845L296.551 243.995L296.466 246.696L298.175 249.548L297.677 251.67L296.222 253.689L296.56 256.643L290.251 254.577L289.397 254.147L289.519 252.68L290.467 252.792L290.927 250.539L290.045 248.688L288.665 248.51L288.965 245.163L287.848 245.425L286.975 244.771L287.229 243.527L288.965 242.901L287.163 242.284L287.182 240.769L286.384 240.554L287.642 238.713L287.951 237.011L290.111 235.983L291.078 236.301L290.918 234.814L288.242 235.656L287.614 235.076L288.327 233.431L289.378 233.973L289.566 232.842L290.336 233.15L291.209 232.169L291.951 232.197L291.922 229.355L290.721 228.747L289.754 229.187L288.58 230.776L288.261 232.3L288.693 232.814L287.67 233.01L280.77 231.701L278.902 229.299L280.676 226.812L280.019 226.485L277.372 227.448L278.517 223.951L284.065 224.213L284.215 222.82L282.216 219.922L282.554 219.118L283.765 219.352L285.783 217.987L284.262 215.388L283.342 215.584L282.572 214.995L282.403 213.733L284.347 213.789L284.619 213.004L283.361 208.535L282.018 208.461L282.779 209.713L281.249 209.124L279.709 211.228L279.549 209.816L280.507 209.321L278.169 208.685L277.212 209.414L276.611 209.115L278.489 206.843L279.202 208.18L279.84 207.601L282.178 204.815L283.952 200.533L280.798 198.869L281.399 198.018L281.117 196.859L279.089 196.055L278.874 194.672L280.545 195.513L280.535 194.709L281.371 194.728L281.549 193.148L282.882 193.129L283.643 192.297L282.694 190.895L284.365 190.605L284.422 189.137L282.685 188.38L283.474 187.454L283.042 185.949L281.605 187.398L279.287 185.931L277.691 186.735L277.362 186.043L275.841 186.024L276.808 185.304L276.423 184.033L277.071 184.369L277.428 183.678L276.789 183.724L276.808 183.042L275.682 182.911L275.513 182.35L276.376 181.78L277.663 182.051L277.55 181.181L278.77 180.312L277.465 179.527L278.78 177.405L278.62 175.647L277.174 174.796L276.226 176.105L276.508 176.862L275.259 177.844L276.433 179.246L275.034 179.452L273.616 177.255L274.17 175.385L274.949 174.787L274.565 174.03L273.654 173.992L272.565 170.421L270.575 168.888L267.317 168.383L266.144 170.496L265.299 170.29L264.886 169.29L263.665 169.655L262.652 167.607L259.488 167.533L259.394 165.149L258.793 165.195L260.633 164.382L260.981 163.214L259.995 161.867L258.521 161.503L258.831 158.698L257.667 157.128L258.155 156.324L260.361 155.398L257.61 154.594L257.423 151.444L258.728 151.135L259.835 152.126L261.243 151.677L260.999 149.939L259.159 148.246L259.713 147.19L259.479 144.498L261.018 143.825L260.53 142.469L270.556 139.711L274.912 140.113L281.202 139.496L285.426 139.992L287.379 139.057L288.59 139.917Z" fill="#F7EBFF"/>
<circle cx="35.5" cy="58.5" r="6" stroke="#4A106D"/>
<circle cx="35.3773" cy="58.6227" r="2.69811" fill="url(#paint0_linear_309_211)"/>
<circle cx="98.5" cy="72.5" r="6" stroke="#4A106D"/>
<circle cx="98.3773" cy="72.6227" r="2.69811" fill="url(#paint1_linear_309_211)"/>
<circle cx="119.5" cy="123.5" r="6" stroke="#4A106D"/>
<circle cx="119.377" cy="123.623" r="2.69811" fill="url(#paint2_linear_309_211)"/>
<circle cx="56.5" cy="159.5" r="6" stroke="#4A106D"/>
<circle cx="56.3773" cy="159.623" r="2.69811" fill="url(#paint3_linear_309_211)"/>
<circle cx="101.5" cy="207.5" r="6" stroke="#4A106D"/>
<circle cx="101.377" cy="207.623" r="2.69811" fill="url(#paint4_linear_309_211)"/>
<circle cx="180.5" cy="162.5" r="6" stroke="#4A106D"/>
<circle cx="180.377" cy="162.623" r="2.69811" fill="url(#paint5_linear_309_211)"/>
<circle cx="243.5" cy="219.5" r="6" stroke="#4A106D"/>
<circle cx="243.377" cy="219.623" r="2.69811" fill="url(#paint6_linear_309_211)"/>
<circle cx="288.5" cy="159.5" r="6" stroke="#4A106D"/>
<circle cx="288.377" cy="159.623" r="2.69811" fill="url(#paint7_linear_309_211)"/>
<circle cx="347.5" cy="187.5" r="6" stroke="#4A106D"/>
<circle cx="347.377" cy="187.623" r="2.69811" fill="url(#paint8_linear_309_211)"/>
<circle cx="277.5" cy="253.5" r="6" stroke="#4A106D"/>
<circle cx="277.377" cy="253.623" r="2.69811" fill="url(#paint9_linear_309_211)"/>
<circle cx="167.5" cy="338.5" r="6" stroke="#4A106D"/>
<circle cx="167.377" cy="338.623" r="2.69811" fill="url(#paint10_linear_309_211)"/>
<circle cx="186.5" cy="267.5" r="6" stroke="#4A106D"/>
<circle cx="186.377" cy="267.623" r="2.69811" fill="url(#paint11_linear_309_211)"/>
<circle cx="80.5" cy="276.5" r="6" stroke="#4A106D"/>
<circle cx="80.3773" cy="276.623" r="2.69811" fill="url(#paint12_linear_309_211)"/>
<circle cx="104.5" cy="334.5" r="6" stroke="#4A106D"/>
<circle cx="104.377" cy="334.623" r="2.69811" fill="url(#paint13_linear_309_211)"/>
<circle cx="100.5" cy="402.5" r="6" stroke="#4A106D"/>
<circle cx="100.377" cy="402.623" r="2.69811" fill="url(#paint14_linear_309_211)"/>
<circle cx="147.5" cy="373.5" r="6" stroke="#4A106D"/>
<circle cx="147.377" cy="373.623" r="2.69811" fill="url(#paint15_linear_309_211)"/>
<circle cx="195.5" cy="367.5" r="6" stroke="#4A106D"/>
<circle cx="195.377" cy="367.623" r="2.69811" fill="url(#paint16_linear_309_211)"/>
<circle cx="208.5" cy="421.5" r="6" stroke="#4A106D"/>
<circle cx="208.377" cy="421.623" r="2.69811" fill="url(#paint17_linear_309_211)"/>
<circle cx="264.5" cy="348.5" r="6" stroke="#4A106D"/>
<circle cx="264.377" cy="348.623" r="2.69811" fill="url(#paint18_linear_309_211)"/>
<circle cx="354.5" cy="325.5" r="6" stroke="#4A106D"/>
<circle cx="354.377" cy="325.623" r="2.69811" fill="url(#paint19_linear_309_211)"/>
<circle cx="341.5" cy="391.5" r="6" stroke="#4A106D"/>
<circle cx="341.377" cy="391.623" r="2.69811" fill="url(#paint20_linear_309_211)"/>
<circle cx="365.5" cy="469.5" r="6" stroke="#4A106D"/>
<circle cx="365.377" cy="469.623" r="2.69811" fill="url(#paint21_linear_309_211)"/>
<defs>
<linearGradient id="paint0_linear_309_211" x1="34.9015" y1="55.7709" x2="38.868" y2="58.5572" gradientUnits="userSpaceOnUse">
<stop stop-color="#3E0064"/>
<stop offset="1" stop-color="#790B98"/>
</linearGradient>
<linearGradient id="paint1_linear_309_211" x1="97.9015" y1="69.7709" x2="101.868" y2="72.5572" gradientUnits="userSpaceOnUse">
<stop stop-color="#3E0064"/>
<stop offset="1" stop-color="#790B98"/>
</linearGradient>
<linearGradient id="paint2_linear_309_211" x1="118.901" y1="120.771" x2="122.868" y2="123.557" gradientUnits="userSpaceOnUse">
<stop stop-color="#3E0064"/>
<stop offset="1" stop-color="#790B98"/>
</linearGradient>
<linearGradient id="paint3_linear_309_211" x1="55.9015" y1="156.771" x2="59.868" y2="159.557" gradientUnits="userSpaceOnUse">
<stop stop-color="#3E0064"/>
<stop offset="1" stop-color="#790B98"/>
</linearGradient>
<linearGradient id="paint4_linear_309_211" x1="100.901" y1="204.771" x2="104.868" y2="207.557" gradientUnits="userSpaceOnUse">
<stop stop-color="#3E0064"/>
<stop offset="1" stop-color="#790B98"/>
</linearGradient>
<linearGradient id="paint5_linear_309_211" x1="179.901" y1="159.771" x2="183.868" y2="162.557" gradientUnits="userSpaceOnUse">
<stop stop-color="#3E0064"/>
<stop offset="1" stop-color="#790B98"/>
</linearGradient>
<linearGradient id="paint6_linear_309_211" x1="242.901" y1="216.771" x2="246.868" y2="219.557" gradientUnits="userSpaceOnUse">
<stop stop-color="#3E0064"/>
<stop offset="1" stop-color="#790B98"/>
</linearGradient>
<linearGradient id="paint7_linear_309_211" x1="287.901" y1="156.771" x2="291.868" y2="159.557" gradientUnits="userSpaceOnUse">
<stop stop-color="#3E0064"/>
<stop offset="1" stop-color="#790B98"/>
</linearGradient>
<linearGradient id="paint8_linear_309_211" x1="346.902" y1="184.771" x2="350.868" y2="187.557" gradientUnits="userSpaceOnUse">
<stop stop-color="#3E0064"/>
<stop offset="1" stop-color="#790B98"/>
</linearGradient>
<linearGradient id="paint9_linear_309_211" x1="276.901" y1="250.771" x2="280.868" y2="253.557" gradientUnits="userSpaceOnUse">
<stop stop-color="#3E0064"/>
<stop offset="1" stop-color="#790B98"/>
</linearGradient>
<linearGradient id="paint10_linear_309_211" x1="166.901" y1="335.771" x2="170.868" y2="338.557" gradientUnits="userSpaceOnUse">
<stop stop-color="#3E0064"/>
<stop offset="1" stop-color="#790B98"/>
</linearGradient>
<linearGradient id="paint11_linear_309_211" x1="185.901" y1="264.771" x2="189.868" y2="267.557" gradientUnits="userSpaceOnUse">
<stop stop-color="#3E0064"/>
<stop offset="1" stop-color="#790B98"/>
</linearGradient>
<linearGradient id="paint12_linear_309_211" x1="79.9015" y1="273.771" x2="83.868" y2="276.557" gradientUnits="userSpaceOnUse">
<stop stop-color="#3E0064"/>
<stop offset="1" stop-color="#790B98"/>
</linearGradient>
<linearGradient id="paint13_linear_309_211" x1="103.901" y1="331.771" x2="107.868" y2="334.557" gradientUnits="userSpaceOnUse">
<stop stop-color="#3E0064"/>
<stop offset="1" stop-color="#790B98"/>
</linearGradient>
<linearGradient id="paint14_linear_309_211" x1="99.9015" y1="399.771" x2="103.868" y2="402.557" gradientUnits="userSpaceOnUse">
<stop stop-color="#3E0064"/>
<stop offset="1" stop-color="#790B98"/>
</linearGradient>
<linearGradient id="paint15_linear_309_211" x1="146.901" y1="370.771" x2="150.868" y2="373.557" gradientUnits="userSpaceOnUse">
<stop stop-color="#3E0064"/>
<stop offset="1" stop-color="#790B98"/>
</linearGradient>
<linearGradient id="paint16_linear_309_211" x1="194.901" y1="364.771" x2="198.868" y2="367.557" gradientUnits="userSpaceOnUse">
<stop stop-color="#3E0064"/>
<stop offset="1" stop-color="#790B98"/>
</linearGradient>
<linearGradient id="paint17_linear_309_211" x1="207.901" y1="418.771" x2="211.868" y2="421.557" gradientUnits="userSpaceOnUse">
<stop stop-color="#3E0064"/>
<stop offset="1" stop-color="#790B98"/>
</linearGradient>
<linearGradient id="paint18_linear_309_211" x1="263.901" y1="345.771" x2="267.868" y2="348.557" gradientUnits="userSpaceOnUse">
<stop stop-color="#3E0064"/>
<stop offset="1" stop-color="#790B98"/>
</linearGradient>
<linearGradient id="paint19_linear_309_211" x1="353.902" y1="322.771" x2="357.868" y2="325.557" gradientUnits="userSpaceOnUse">
<stop stop-color="#3E0064"/>
<stop offset="1" stop-color="#790B98"/>
</linearGradient>
<linearGradient id="paint20_linear_309_211" x1="340.902" y1="388.771" x2="344.868" y2="391.557" gradientUnits="userSpaceOnUse">
<stop stop-color="#3E0064"/>
<stop offset="1" stop-color="#790B98"/>
</linearGradient>
<linearGradient id="paint21_linear_309_211" x1="364.902" y1="466.771" x2="368.868" y2="469.557" gradientUnits="userSpaceOnUse">
<stop stop-color="#3E0064"/>
<stop offset="1" stop-color="#790B98"/>
</linearGradient>
</defs>
</svg>
